<svg xmlns="http://www.w3.org/2000/svg" width="1200" height="630" viewBox="0 0 680 370">
  <rect x="0" y="0" width="680" height="370" fill="#111111"/>
  <g transform="translate(48, 28)">
    <path d="M10 0 A14 14 0 0 1 24 8 L19 12 A8 8 0 0 0 10 5 Z" fill="#f0c040"/>
    <path d="M24 8 A14 14 0 0 1 14 24 L10 19 A8 8 0 0 0 19 12 Z" fill="#9b7fd4"/>
    <path d="M14 24 A14 14 0 0 1 0 14 L5 10 A8 8 0 0 0 10 19 Z" fill="#40a080" opacity="0.8"/>
    <path d="M0 14 A14 14 0 0 1 10 0 L10 5 A8 8 0 0 0 5 10 Z" fill="#f0c040" opacity="0.5"/>
    <circle cx="14" cy="14" r="5" fill="#f0c040"/>
    <text x="32" y="10" font-family="sans-serif" font-size="11" font-weight="400" fill="#555555">open</text>
    <text x="32" y="23" font-family="sans-serif" font-size="11" font-weight="600" fill="#aaaaaa">view</text>
  </g>
  <rect x="48" y="72" width="110" height="22" rx="11" fill="none" stroke="#2a2a2a" stroke-width="0.5"/>
  <text x="103" y="87" text-anchor="middle" font-family="sans-serif" font-size="10" fill="#555555" letter-spacing="2">PORTFÓLIO</text>
  <text x="48" y="148" font-family="Georgia, serif" font-size="46" font-weight="700" fill="#ffffff">O segmento</text>
  <text x="48" y="198" font-family="Georgia, serif" font-size="46" font-weight="700" fill="#9b7fd4">muda.</text>
  <text x="48" y="244" font-family="Georgia, serif" font-size="34" font-weight="400" font-style="italic" fill="#888888">O resultado,</text>
  <text x="348" y="244" font-family="Georgia, serif" font-size="34" font-weight="700" font-style="italic" fill="#f0c040"> não.</text>
  <line x1="48" y1="266" x2="632" y2="266" stroke="#222222" stroke-width="0.5"/>
  <text x="48" y="298" font-family="sans-serif" font-size="16" fill="#cccccc">Marketing sob medida para qualquer negócio:</text>
  <text x="48" y="322" font-family="sans-serif" font-size="16" fill="#cccccc">do planejamento à execução, com estratégia</text>
  <text x="48" y="346" font-family="sans-serif" font-size="16" fill="#cccccc">e criatividade.</text>
</svg>